<svg width="80" height="73" viewBox="0 0 80 73" fill="none" xmlns="http://www.w3.org/2000/svg">
<path d="M40.4 50.8436C40.4 51.2423 40.74 51.5686 41.15 51.5686H59.65C60.06 51.5686 60.4 51.2423 60.4 50.8436V46.4933C60.4 46.0945 60.06 45.7683 59.65 45.7683H41.15C40.74 45.7683 40.4 46.0945 40.4 46.4933V50.8436ZM20.91 51.3964L40.11 36.8049C40.49 36.5149 40.49 35.9802 40.11 35.6902L20.91 21.1078C20.7941 21.0184 20.6523 20.9611 20.5016 20.9427C20.3508 20.9242 20.1973 20.9453 20.0594 21.0035C19.9215 21.0617 19.8049 21.1546 19.7234 21.271C19.642 21.3875 19.5992 21.5227 19.6 21.6606V27.3431C19.6 27.5606 19.7 27.76 19.89 27.896L30.87 36.2521L19.89 44.6082C19.8006 44.676 19.7284 44.7605 19.6784 44.8559C19.6283 44.9513 19.6016 45.0554 19.6 45.161V50.8436C19.6 51.4598 20.39 51.7952 20.91 51.3964ZM76.8 0H3.2C1.43 0 0 1.29601 0 2.90017V69.604C0 71.2082 1.43 72.5042 3.2 72.5042H76.8C78.57 72.5042 80 71.2082 80 69.604V2.90017C80 1.29601 78.57 0 76.8 0ZM72.8 65.9788H7.2V6.52538H72.8V65.9788Z" fill="white"/>
</svg>
