<svg width="72" height="77" viewBox="0 0 72 77" fill="none" xmlns="http://www.w3.org/2000/svg">
<path d="M35.9869 5.70518e-05C35.9235 0.00170708 35.8601 0.00491098 35.7969 0.00966562C35.5284 0.0288839 35.2638 0.0827486 35.0102 0.169808C34.8185 0.236124 34.6342 0.320897 34.4602 0.422834L2.45355 18.1763C2.0027 18.426 1.62825 18.7854 1.36786 19.2183C1.10747 19.6513 0.970323 20.1424 0.970215 20.6425V56.2294C0.970255 56.745 1.11602 57.251 1.39194 57.6932C1.66786 58.1355 2.06359 58.4974 2.53688 58.7404L34.5302 76.4874L34.7102 76.5803V76.5867C34.8003 76.6287 34.8927 76.6662 34.9869 76.6988L35.0269 76.7116C35.1202 76.7437 35.2135 76.7693 35.3102 76.7885C35.3435 76.7917 35.3469 76.7981 35.3635 76.8013C35.6876 76.8679 36.0208 76.8841 36.3502 76.8494C36.4467 76.8392 36.5425 76.8232 36.6369 76.8013C36.6702 76.8013 36.6735 76.7949 36.6902 76.7885C36.7859 76.7672 36.8804 76.7415 36.9735 76.7116L37.0135 76.6988C37.1077 76.666 37.2 76.6286 37.2902 76.5867V76.5803C37.3511 76.551 37.4111 76.52 37.4702 76.4874L69.4669 58.7404C69.9396 58.497 70.3346 58.1348 70.6099 57.6926C70.8852 57.2504 71.0305 56.7447 71.0302 56.2294V20.7546L71.0269 20.6713V20.6457C71.0267 20.234 70.9337 19.8272 70.7541 19.4534C70.5746 19.0797 70.3128 18.7477 69.9869 18.4805L69.8902 18.4037C69.8902 18.3973 69.8569 18.3876 69.8569 18.3812C69.7437 18.2985 69.6245 18.2236 69.5002 18.157L37.5102 0.40682C37.0445 0.137491 36.5105 -0.00325255 35.9669 5.70518e-05H35.9869ZM36.0202 7.21609C36.2602 7.21609 36.5002 7.27695 36.7169 7.39545L58.5069 19.483C58.7187 19.6005 58.8946 19.7695 59.0169 19.9731C59.1392 20.1766 59.2036 20.4075 59.2036 20.6425C59.2036 20.8775 59.1392 21.1083 59.0169 21.3119C58.8946 21.5154 58.7187 21.6844 58.5069 21.8019L36.7169 33.8895C36.5051 34.007 36.2648 34.0688 36.0202 34.0688C35.7756 34.0688 35.5354 34.007 35.3235 33.8895L13.5335 21.8019C13.3217 21.6844 13.1458 21.5154 13.0235 21.3119C12.9013 21.1083 12.8369 20.8775 12.8369 20.6425C12.8369 20.4075 12.9013 20.1766 13.0235 19.9731C13.1458 19.7695 13.3217 19.6005 13.5335 19.483L35.3235 7.39545C35.5355 7.27823 35.7757 7.21639 36.0202 7.21609ZM9.08688 27.9001C9.33863 27.897 9.58646 27.9602 9.80355 28.0827L31.5502 40.1446C31.7611 40.262 31.9362 40.4307 32.0579 40.6336C32.1796 40.8365 32.2436 41.0667 32.2435 41.3009V65.428C32.2436 65.6626 32.1794 65.8932 32.0573 66.0964C31.9352 66.2996 31.7595 66.4683 31.5479 66.5855C31.3364 66.7027 31.0964 66.7643 30.8522 66.7641C30.608 66.7639 30.3682 66.7018 30.1569 66.5842L8.41355 54.5223C8.2015 54.405 8.02543 54.2361 7.9031 54.0325C7.78078 53.8289 7.71654 53.5979 7.71688 53.3628V29.2421C7.71688 28.4702 8.37021 27.9161 9.08355 27.9033L9.08688 27.9001ZM62.9535 27.9001C63.6702 27.9129 64.3202 28.467 64.3202 29.2389V53.3628C64.3202 53.8433 64.0535 54.2821 63.6269 54.5223L41.8802 66.5842C41.6689 66.7018 41.4291 66.7639 41.1849 66.7641C40.9407 66.7643 40.7007 66.7027 40.4892 66.5855C40.2776 66.4683 40.1019 66.2996 39.9798 66.0964C39.8577 65.8932 39.7934 65.6626 39.7935 65.428V41.3009C39.7935 40.8237 40.0602 40.3849 40.4902 40.1479L62.2335 28.0827C62.4517 27.9598 62.7007 27.8966 62.9535 27.9001Z" fill="white"/>
</svg>
